<svg width="28" height="28" viewBox="0 0 28 28" fill="none" xmlns="http://www.w3.org/2000/svg">
<path d="M15.4081 3.49605C14.5854 2.83595 13.4146 2.83595 12.5919 3.49605L4.84191 9.71438C4.30967 10.1414 4 10.7869 4 11.4693V22.7497C4 23.9078 4.87501 24.8616 6 24.986V25L22 25V24.986C23.125 24.8616 24 23.9078 24 22.7497V11.4693C24 10.7869 23.6903 10.1414 23.1581 9.71438L15.4081 3.49605ZM19.6281 23.5L8.37186 23.5C8.45484 23.2653 8.5 23.0128 8.5 22.7497V21.3334H19.5V22.7497C19.5 23.0128 19.5452 23.2653 19.6281 23.5ZM7 22.7497C7 23.1639 6.66421 23.4997 6.25 23.4997C5.83579 23.4997 5.5 23.1639 5.5 22.7497V11.4693C5.5 11.2418 5.60322 11.0267 5.78064 10.8843L13.5306 4.666C13.8049 4.44597 14.1951 4.44597 14.4694 4.666L22.2194 10.8843C22.3968 11.0267 22.5 11.2418 22.5 11.4693V22.7497C22.5 23.1639 22.1642 23.4997 21.75 23.4997C21.3358 23.4997 21 23.1639 21 22.7497V14.7497C21 13.5071 19.9926 12.4997 18.75 12.4997H9.25C8.00736 12.4997 7 13.5071 7 14.7497V22.7497ZM19.5 17.6667V19.8334H8.5V17.6667H19.5ZM8.5 16.1667V14.7497C8.5 14.3355 8.83579 13.9997 9.25 13.9997H18.75C19.1642 13.9997 19.5 14.3355 19.5 14.7497V16.1667H8.5Z" fill="#242424"/>
</svg>
