<svg width="24" height="24" viewBox="0 0 24 24" fill="none" xmlns="http://www.w3.org/2000/svg">
<path d="M10.5495 2.53189C11.3874 1.82531 12.6126 1.82531 13.4505 2.5319L20.2005 8.224C20.7074 8.65152 21 9.2809 21 9.94406L21 19.2539C21 20.1888 20.2669 20.9524 19.3442 21.0014V21.0039L4.75 21.0039C3.7835 21.0039 3 20.2204 3 19.2539V9.94406C3 9.2809 3.29255 8.65152 3.79952 8.224L10.5495 2.53189ZM19.25 19.5039C19.3881 19.5039 19.5 19.392 19.5 19.2539L19.5 9.94406C19.5 9.72301 19.4025 9.51321 19.2335 9.37071L12.4835 3.6786C12.2042 3.44307 11.7958 3.44307 11.5165 3.6786L4.76651 9.37071C4.59752 9.51321 4.5 9.72301 4.5 9.94406V19.2539C4.5 19.392 4.61193 19.5039 4.75 19.5039H5.25C5.38807 19.5039 5.49999 19.392 5.49999 19.2539L5.49999 12.2468C5.49999 11.2803 6.2835 10.4968 7.24999 10.4968H16.75C17.7165 10.4968 18.5 11.2803 18.5 12.2468L18.5 19.2539C18.5 19.392 18.6119 19.5039 18.75 19.5039H19.25ZM17.0177 19.5039C17.006 19.4223 17 19.3388 17 19.2539V18L6.99999 18V19.2539C6.99999 19.3388 6.99395 19.4223 6.98227 19.5039L17.0177 19.5039ZM17 16.5V14.9983L6.99999 14.9983V16.5L17 16.5ZM17 12.2468C17 12.1088 16.8881 11.9968 16.75 11.9968H7.24999C7.11192 11.9968 6.99999 12.1088 6.99999 12.2468V13.4983L17 13.4983V12.2468Z" fill="#242424"/>
</svg>
