<svg width="28" height="28" viewBox="0 0 28 28" fill="none" xmlns="http://www.w3.org/2000/svg">
<path d="M15.4081 3.49605C14.5854 2.83595 13.4146 2.83595 12.5919 3.49605L4.84191 9.71438C4.30967 10.1414 4 10.7869 4 11.4693V22.7497C4 23.9078 4.87501 24.8616 6 24.986V25L22 25V24.986C23.125 24.8616 24 23.9078 24 22.7497V11.4693C24 10.7869 23.6903 10.1414 23.1581 9.71438L15.4081 3.49605ZM19.6281 23.5L8.37186 23.5C8.45484 23.2653 8.5 23.0128 8.5 22.7497V21.3334H19.5V22.7497C19.5 23.0128 19.5452 23.2653 19.6281 23.5ZM19.5 17.6667V19.8334H8.5V17.6667H19.5ZM8.5 16.1667V14.7497C8.5 14.3355 8.83579 13.9997 9.25 13.9997H18.75C19.1642 13.9997 19.5 14.3355 19.5 14.7497V16.1667H8.5Z" fill="#242424"/>
</svg>
