<svg width="28" height="28" viewBox="0 0 28 28" fill="none" xmlns="http://www.w3.org/2000/svg">
<path d="M14.75 8C14.75 7.58579 14.4142 7.25 14 7.25C13.5858 7.25 13.25 7.58579 13.25 8V11C13.25 11.4142 13.5858 11.75 14 11.75C14.4142 11.75 14.75 11.4142 14.75 11V8Z" fill="#242424"/>
<path d="M8.5 4.75C8.5 4.33579 8.83579 4 9.25 4H18.75C19.1642 4 19.5 4.33579 19.5 4.75V11H25.25C25.6642 11 26 11.3358 26 11.75V23.25C26 23.6642 25.6642 24 25.25 24H2.75C2.33579 24 2 23.6642 2 23.25V15.25C2 14.8358 2.33579 14.5 2.75 14.5H8.5V4.75ZM10 5.5V15.25C10 15.6642 9.66421 16 9.25 16H3.5V22.5H24.5V12.5H18.75C18.3358 12.5 18 12.1642 18 11.75V5.5H10Z" fill="#242424"/>
</svg>
