<svg width="24" height="24" viewBox="0 0 24 24" fill="none" xmlns="http://www.w3.org/2000/svg">
<path d="M12.75 6.75C12.75 6.33579 12.4142 6 12 6C11.5858 6 11.25 6.33579 11.25 6.75V9.25C11.25 9.66421 11.5858 10 12 10C12.4142 10 12.75 9.66421 12.75 9.25V6.75Z" fill="#242424"/>
<path d="M7.75 3C7.33579 3 7 3.33579 7 3.75V12H2.75C2.33579 12 2 12.3358 2 12.75V20.25C2 20.6642 2.33579 21 2.75 21H21.25C21.6642 21 22 20.6642 22 20.25V9.25C22 8.83579 21.6642 8.5 21.25 8.5H17V3.75C17 3.33579 16.6642 3 16.25 3H7.75ZM8.5 12.75V4.5H15.5V9.25C15.5 9.66421 15.8358 10 16.25 10H20.5V19.5H3.5V13.5H7.75C8.16421 13.5 8.5 13.1642 8.5 12.75Z" fill="#242424"/>
</svg>
