<svg width="28" height="28" viewBox="0 0 28 28" fill="none" xmlns="http://www.w3.org/2000/svg">
<path d="M9.25 4C8.83579 4 8.5 4.33579 8.5 4.75V14.5H2.75C2.33579 14.5 2 14.8358 2 15.25V23.25C2 23.6642 2.33579 24 2.75 24H25.25C25.6642 24 26 23.6642 26 23.25V11.75C26 11.3358 25.6642 11 25.25 11H19.5V4.75C19.5 4.33579 19.1642 4 18.75 4H9.25ZM14 7.25C14.4142 7.25 14.75 7.58579 14.75 8V11C14.75 11.4142 14.4142 11.75 14 11.75C13.5858 11.75 13.25 11.4142 13.25 11V8C13.25 7.58579 13.5858 7.25 14 7.25Z" fill="#242424"/>
</svg>
