<svg width="24" height="24" viewBox="0 0 24 24" fill="none" xmlns="http://www.w3.org/2000/svg">
<path d="M7 3.75C7 3.33579 7.33579 3 7.75 3H16.25C16.6642 3 17 3.33579 17 3.75V8.5H21.25C21.6642 8.5 22 8.83579 22 9.25V20.25C22 20.6642 21.6642 21 21.25 21H2.75C2.33579 21 2 20.6642 2 20.25V12.75C2 12.3358 2.33579 12 2.75 12H7V3.75ZM12 6C11.5858 6 11.25 6.33579 11.25 6.75V9.25C11.25 9.66421 11.5858 10 12 10C12.4142 10 12.75 9.66421 12.75 9.25V6.75C12.75 6.33579 12.4142 6 12 6Z" fill="#242424"/>
</svg>
