<svg xmlns="http://www.w3.org/2000/svg" viewBox="0 0 24 24">
  <path fill="currentColor" d="M15.5 2.25a.75.75 0 0 1 .65.38C16.6 3.72 17.9 4.5 19 4.5c.2 0 .4-.02.6-.06l.9 3.57L18 9.06V20.25a.75.75 0 0 1-.75.75H6.75A.75.75 0 0 1 6 20.25V9.06L3.5 8.01l.9-3.57c.2.04.4.06.6.06 1.1 0 2.4-.78 2.85-1.88a.75.75 0 0 1 .65-.37c.63 0 1.24.36 1.75.74.57.43 1.12.99 1.75.99s1.18-.56 1.75-.99c.51-.38 1.12-.74 1.75-.74ZM9.4 3.84C8.8 4.4 8.05 4.9 7.2 5.12L6.55 7.7 8.25 8.44A.75.75 0 0 1 8.75 9.14V19.5h6.5V9.14a.75.75 0 0 1 .5-.7l1.7-.74-.65-2.58c-.85-.22-1.6-.72-2.2-1.28-.44.3-.88.66-1.35.93-.57.33-1.18.5-1.75.5s-1.18-.17-1.75-.5c-.47-.27-.91-.63-1.35-.93Z"/>
</svg>
