<svg width="28" height="28" viewBox="0 0 28 28" fill="none" xmlns="http://www.w3.org/2000/svg">
<path d="M20.6766 16.4375H20.7782V15.9674H20.7799L20.9488 16.4375H21.0367L21.2056 15.9674H21.2073V16.4375H21.3088V15.8283H21.1604L20.9965 16.3053H20.9948L20.8268 15.8283H20.6766V16.4375ZM20.1145 15.9204H20.3072V16.4375H20.4139V15.9204H20.6076V15.8283H20.1145V15.9204ZM18.875 16.4375L23.75 11.5625H20.8159L15.941 16.4375H18.875ZM18.176 13.6856H12.2746C10.476 13.6856 10.1612 13.7809 9.39089 14.5513C8.67041 15.2718 7.5001 16.4375 7.5001 16.4375H10.0565L10.6664 15.8276C11.0674 15.4266 11.2742 15.3851 12.1161 15.3851H16.4766L18.176 13.6856ZM9.31218 14.2036C8.78009 14.7057 7.62238 15.8303 6.99838 16.4375H4.25C4.25 16.4375 6.45228 14.2416 7.67631 13.0368C8.93741 11.8363 9.56609 11.5625 11.8792 11.5625H20.2992L18.4761 13.3855H12.0502C10.4249 13.3855 10.0597 13.4982 9.31218 14.2036Z" fill="#EE0000"/>
</svg>
