<svg width="32" height="32" viewBox="0 0 32 32" fill="none" xmlns="http://www.w3.org/2000/svg">
<path d="M24.2174 19H24.3424V18.4214H24.3445L24.5524 19H24.6605L24.8684 18.4214H24.8705V19H24.9955V18.2502H24.8127L24.6111 18.8373H24.609L24.4023 18.2502H24.2174V19ZM23.5255 18.3636H23.7628V19H23.894V18.3636H24.1324V18.2502H23.5255V18.3636ZM22 19L28 13H24.3888L18.3889 19H22ZM21.1397 15.613H13.8764C11.6627 15.613 11.2754 15.7304 10.3273 16.6785C9.4405 17.5652 8.00013 19 8.00013 19H11.1465L11.8971 18.2494C12.3906 17.7559 12.6451 17.7048 13.6814 17.7048H19.0481L21.1397 15.613ZM10.2304 16.2506C9.5755 16.8685 8.15063 18.2526 7.38263 19H4C4 19 6.7105 16.2974 8.217 14.8145C9.76913 13.337 10.5429 13 13.3898 13H23.7529L21.509 15.2438H13.6002C11.5999 15.2438 11.1504 15.3824 10.2304 16.2506Z" fill="#EE0000"/>
</svg>
