<svg width="20" height="20" viewBox="0 0 20 20" fill="none" xmlns="http://www.w3.org/2000/svg">
<path d="M14.1087 11.5H14.1712V11.2107H14.1722L14.2762 11.5H14.3302L14.4342 11.2107H14.4353V11.5H14.4978V11.1251H14.4064L14.3056 11.4186H14.3045L14.2011 11.1251H14.1087V11.5ZM13.7627 11.1818H13.8814V11.5H13.947V11.1818H14.0662V11.1251H13.7627V11.1818ZM13 11.5L16 8.5H14.1944L11.1944 11.5H13ZM12.5699 9.8065H8.93819C7.83137 9.8065 7.63769 9.86519 7.16363 10.3392C6.72025 10.7826 6.00006 11.5 6.00006 11.5H7.57325L7.94856 11.1247C8.19531 10.8779 8.32256 10.8524 8.84069 10.8524H11.5241L12.5699 9.8065ZM7.11519 10.1253C6.78775 10.4342 6.07531 11.1263 5.69131 11.5H4C4 11.5 5.35525 10.1487 6.1085 9.40725C6.88456 8.6685 7.27144 8.5 8.69488 8.5H13.8764L12.7545 9.62188H8.80012C7.79994 9.62188 7.57519 9.69119 7.11519 10.1253Z" fill="#EE0000"/>
</svg>
