<svg width="24" height="24" viewBox="0 0 24 24" fill="none" xmlns="http://www.w3.org/2000/svg">
<path d="M17.3071 13.9375H17.3878V13.5638H17.3892L17.5234 13.9375H17.5932L17.7275 13.5638H17.7289V13.9375H17.8096V13.4533H17.6916L17.5614 13.8324H17.56L17.4265 13.4533H17.3071V13.9375ZM16.8602 13.5265H17.0134V13.9375H17.0982V13.5265H17.2522V13.4533H16.8602V13.5265ZM15.875 13.9375L19.75 10.0625H17.4177L13.5428 13.9375H15.875ZM15.3194 11.7501H10.6285C9.19886 11.7501 8.94868 11.8259 8.33635 12.4382C7.76366 13.0109 6.83341 13.9375 6.83341 13.9375H8.86545L9.35023 13.4527C9.66894 13.134 9.83331 13.101 10.5026 13.101H13.9686L15.3194 11.7501ZM8.27378 12.1619C7.85084 12.5609 6.93061 13.4548 6.43461 13.9375H4.25C4.25 13.9375 6.00053 12.1921 6.97348 11.2344C7.97589 10.2801 8.47561 10.0625 10.3142 10.0625H17.0071L15.5579 11.5116H10.4502C9.15825 11.5116 8.86795 11.6011 8.27378 12.1619Z" fill="#EE0000"/>
</svg>
