<svg width="48" height="48" viewBox="0 0 48 48" fill="none" xmlns="http://www.w3.org/2000/svg">
<path d="M36.1549 28.4375H36.3398V27.5816H36.3429L36.6504 28.4375H36.8103L37.1178 27.5816H37.1209V28.4375H37.3058V27.3285H37.0355L36.7373 28.1968H36.7341L36.4283 27.3285H36.1549V28.4375ZM35.1315 27.4962H35.4824V28.4375H35.6765V27.4962H36.0291V27.3285H35.1315V27.4962ZM32.875 28.4375L41.75 19.5625H36.4084L27.5335 28.4375H32.875ZM31.6025 23.4276H20.8588C17.5845 23.4276 17.0115 23.6012 15.6091 25.0036C14.2974 26.3153 12.1669 28.4375 12.1669 28.4375H16.8209L17.9312 27.3272C18.6611 26.5972 19.0376 26.5216 20.5704 26.5216H28.5087L31.6025 23.4276ZM15.4658 24.3707C14.4971 25.2847 12.3895 27.332 11.2535 28.4375H6.25C6.25 28.4375 10.2593 24.4399 12.4876 22.2464C14.7835 20.061 15.928 19.5625 20.139 19.5625H35.4678L32.1487 22.8814H20.4504C17.4915 22.8814 16.8266 23.0864 15.4658 24.3707Z" fill="#EE0000"/>
</svg>
