<svg width="12" height="12" viewBox="0 0 12 12" fill="none" xmlns="http://www.w3.org/2000/svg">
<path d="M8.73913 7H8.78079V6.80713H8.7815L8.85079 7H8.88683L8.95613 6.80713H8.95683V7H8.9985V6.75008H8.93758L8.87038 6.94575H8.86967L8.80075 6.75008H8.73913V7ZM8.5085 6.78788H8.58758V7H8.63133V6.78788H8.71079V6.75008H8.5085V6.78788ZM8 7L10 5H8.79625L6.79629 7H8ZM7.71325 5.871H5.29213C4.55425 5.871 4.42513 5.91013 4.10908 6.22617C3.8135 6.52175 3.33338 7 3.33338 7H4.38217L4.63238 6.74979C4.79688 6.58529 4.88171 6.56825 5.22712 6.56825H7.01604L7.71325 5.871ZM4.07679 6.08354C3.8585 6.2895 3.38354 6.75088 3.12754 7H2C2 7 2.9035 6.09913 3.40567 5.60483C3.92304 5.11233 4.18096 5 5.12992 5H8.58429L7.83633 5.74792H5.20008C4.53329 5.74792 4.38346 5.79413 4.07679 6.08354Z" fill="#EE0000"/>
</svg>
