<svg width="16" height="16" viewBox="0 0 16 16" fill="none" xmlns="http://www.w3.org/2000/svg">
<path d="M11.7663 9.375H11.8236V9.1098H11.8246L11.9198 9.375H11.9694L12.0647 9.1098H12.0656V9.375H12.1229V9.03136H12.0392L11.9468 9.30041H11.9458L11.851 9.03136H11.7663V9.375ZM11.4492 9.08333H11.5579V9.375H11.6181V9.08333H11.7273V9.03136H11.4492V9.08333ZM10.75 9.375L13.5 6.625H11.8448L9.0949 9.375H10.75ZM10.3557 7.82263H7.02667C6.01209 7.82263 5.83455 7.87642 5.39999 8.31098C4.99356 8.71741 4.33339 9.375 4.33339 9.375H5.77548L6.11952 9.03096C6.3457 8.80478 6.46235 8.78134 6.9373 8.78134H9.39706L10.3557 7.82263ZM5.35559 8.11487C5.05544 8.39806 4.40237 9.03245 4.05037 9.375H2.5C2.5 9.375 3.74231 8.1363 4.43279 7.45665C5.14418 6.77946 5.49882 6.625 6.80364 6.625H11.5534L10.525 7.65339H6.90011C5.98328 7.65339 5.77726 7.71692 5.35559 8.11487Z" fill="#EE0000"/>
</svg>
